<svg width="17" height="14" viewBox="0 0 17 14" fill="none" xmlns="http://www.w3.org/2000/svg">
<path d="M16.5883 10.2689C16.5883 12.0067 15.1664 13.4286 13.4286 13.4286C11.9673 13.4286 10.7429 12.4017 10.3874 11.0588H1.9748C0.86891 11.0588 0 10.1899 0 9.08404V1.97477C0 0.868882 0.86891 -2.86102e-05 1.9748 -2.86102e-05H13.0337C14.1395 -2.86102e-05 15.0085 0.868882 15.0085 1.97477V7.54369C15.9564 8.09664 16.5883 9.08404 16.5883 10.2689ZM14.2185 3.15965H11.0194C10.3874 3.15965 9.87398 3.67309 9.87398 4.34452C9.87398 5.01595 10.3874 5.5294 11.0194 5.5294H14.2185V3.15965ZM14.2185 6.31932H11.0194C9.95297 6.31932 9.08406 5.45041 9.08406 4.34452C9.08406 3.23864 9.95297 2.36973 11.0194 2.36973H14.2185V1.97477C14.2185 1.30334 13.7051 0.78989 13.0337 0.78989H1.9748C1.30337 0.78989 0.789919 1.30334 0.789919 1.97477V9.08404C0.789919 9.75547 1.30337 10.2689 1.9748 10.2689H10.2689C10.2689 8.53109 11.6908 7.10924 13.4286 7.10924C13.7051 7.10924 13.9816 7.14874 14.2185 7.22773V6.31932ZM13.4286 7.89916C12.1253 7.89916 11.0589 8.96555 11.0589 10.2689C11.0589 11.5723 12.1253 12.6387 13.4286 12.6387C14.732 12.6387 15.7984 11.5723 15.7984 10.2689C15.7984 8.96555 14.732 7.89916 13.4286 7.89916Z" fill="#6E7074"/>
<path d="M13.7051 11.7303C13.6656 11.7697 13.6261 11.8092 13.5866 11.8092C13.5076 11.8487 13.3892 11.8487 13.2707 11.8092C13.2312 11.7697 13.1917 11.7697 13.1522 11.7303L12.3623 10.9403C12.2043 10.7824 12.2043 10.5454 12.3623 10.3874C12.5202 10.2294 12.7572 10.2294 12.9152 10.3874L13.0337 10.5059V9.12352C13.0337 8.88655 13.1917 8.72856 13.4287 8.72856C13.6656 8.72856 13.8236 8.88655 13.8236 9.12352V10.5059L13.9421 10.3874C14.0211 10.3084 14.1396 10.2689 14.2186 10.2689C14.2976 10.2689 14.4161 10.3084 14.495 10.3874C14.653 10.5454 14.653 10.7824 14.495 10.9403L13.7051 11.7303Z" fill="#6E7074"/>
<path d="M11.0589 3.94958C11.277 3.94958 11.4539 4.12641 11.4539 4.34454C11.4539 4.56267 11.277 4.7395 11.0589 4.7395C10.8408 4.7395 10.6639 4.56267 10.6639 4.34454C10.6639 4.12641 10.8408 3.94958 11.0589 3.94958Z" fill="#6E7074"/>
</svg>
